<?xml version="1.0" standalone="no"?>
<!DOCTYPE svg PUBLIC "-//W3C//DTD SVG 20010904//EN"
 "http://www.w3.org/TR/2001/REC-SVG-20010904/DTD/svg10.dtd">
<svg version="1.0" xmlns="http://www.w3.org/2000/svg"
 width="500.000000pt" height="500.000000pt" viewBox="0 0 500.000000 500.000000"
 preserveAspectRatio="xMidYMid meet">
<metadata>
Created by potrace 1.11, written by Peter Selinger 2001-2013
</metadata>
<g transform="translate(0.000000,500.000000) scale(0.100000,-0.100000)"
fill="#000000" stroke="none">
<path d="M3707 4784 c-1 -1 -22 -5 -47 -8 -127 -17 -168 -35 -361 -163 -44
-29 -82 -53 -84 -53 -3 0 -13 -8 -23 -17 -10 -10 -36 -31 -57 -48 -197 -151
-275 -254 -315 -411 -35 -136 -66 -224 -79 -224 -11 0 -33 -43 -38 -74 -2 -17
-14 -65 -25 -106 -47 -176 -60 -255 -61 -375 -2 -151 8 -231 33 -291 11 -25
19 -56 17 -68 -5 -31 -62 -204 -87 -261 -27 -64 -45 -82 -160 -165 -107 -76
-140 -94 -190 -105 -19 -4 -39 -10 -45 -13 -12 -8 -25 -10 -100 -17 -116 -11
-150 -14 -190 -19 -22 -2 -62 -7 -90 -10 -27 -4 -61 -9 -75 -12 -43 -10 -64
-14 -110 -20 -25 -3 -48 -8 -51 -10 -25 -15 -482 -25 -544 -11 -141 30 -170
17 -253 -112 -26 -39 -43 -81 -51 -123 -19 -99 -37 -152 -66 -198 -29 -46 -32
-50 -69 -91 -13 -15 -34 -44 -46 -65 -13 -22 -26 -41 -30 -44 -16 -15 -90
-138 -135 -225 -29 -55 -79 -143 -112 -195 -33 -52 -71 -120 -86 -150 -14 -30
-59 -95 -101 -145 l-75 -90 -1 -432 0 -433 331 0 331 0 45 45 c45 47 70 58 58
28 -3 -10 -9 -30 -12 -45 l-5 -28 2036 0 c1932 0 2036 1 2037 18 0 9 2 26 4
36 2 11 6 52 10 91 3 40 8 83 10 96 4 22 9 73 20 234 7 110 24 271 30 295 2 8
7 39 10 69 4 30 8 63 11 74 22 116 22 222 -1 282 -20 50 -91 115 -127 115 -11
0 -32 6 -46 14 -15 7 -54 26 -87 41 -33 15 -82 41 -110 58 -47 29 -216 149
-240 169 -5 5 -22 17 -36 26 -14 9 -70 50 -123 90 -53 40 -133 96 -178 124
-104 64 -179 143 -224 234 -36 74 -37 82 -36 289 0 33 17 101 49 200 56 168
73 205 115 254 16 18 34 44 40 57 l11 23 28 -21 c41 -31 87 -27 142 11 62 42
78 60 143 158 61 92 74 121 81 174 4 33 1 40 -31 65 -20 16 -36 32 -36 35 0 4
20 49 44 101 39 82 87 234 113 353 8 40 1 233 -11 290 -4 17 -15 57 -25 90
-10 33 -22 78 -26 100 -10 59 -53 160 -101 240 -36 60 -108 137 -180 195 -29
23 -115 66 -149 75 -44 12 -45 12 -47 15 -6 5 -157 18 -161 14z"/>
</g>
</svg>
